<?xml version="1.0" encoding="utf-8"?>
<!-- Generator: Adobe Illustrator 24.3.0, SVG Export Plug-In . SVG Version: 6.00 Build 0)  -->
<svg version="1.1" id="Layer_1" xmlns="http://www.w3.org/2000/svg" xmlns:xlink="http://www.w3.org/1999/xlink" x="0px" y="0px"
	 viewBox="0 0 1000 1000" style="enable-background:new 0 0 1000 1000;" xml:space="preserve">
<style type="text/css">
	.st0{fill:#F8A834;}
	.st1{fill:#336DAB;}
	.st2{fill:#FAA334;}
	.st3{fill:#FFFFFF;}
	.st4{fill:none;}
</style>
<g>
	<path class="st0" d="M851.74,700.43c-0.53,1.79-0.65,3.74-1.59,5.1c-3.21,4.66-6.39,9.41-10.16,13.57
		c-6.67,7.35-13.6,14.48-20.75,21.34c-6.35,6.1-13.26,11.58-19.69,17.58c-8.41,7.85-18.11,13.61-27.9,19.34
		c-17.96,10.49-37.09,18.1-56.74,24.32c-7.7,2.43-15.69,3.96-23.61,5.61c-9.61,2.01-19.37,2.79-29.13,3.4
		c-10.14,0.63-20.32,0.06-30.42-1.03c-9.38-1.02-18.62-2.72-27.88-4.21c-11.86-1.9-23.32-5.33-34.79-8.78
		c-14.86-4.47-29.48-9.7-43.9-15.49c-9.92-3.98-19.81-8.07-29.71-12.1c-9.76-3.98-19.5-8.01-29.29-11.9
		c-9.04-3.59-18.12-7.08-27.23-10.46c-11.22-4.16-22.56-7.97-34.11-11.07c-62.98-16.92-128.38-14.66-185.75,19.09
		c-7.48,4.4-15.1,8.56-22.15,13.66c-6.42,4.64-12.86,9.26-18.38,15.09c-5.78,6.1-11.83,11.96-17.56,18.11
		c-3.87,4.15-7.37,8.65-11.12,12.92c-0.54,0.61-1.5,0.83-2.79,1.51c2.98-8.47,6.39-15.87,10.87-22.73c2.08-3.2,4.17-6.42,6.54-9.39
		c5.85-7.34,12.41-13.87,19.68-19.8c7.57-6.19,15.46-11.85,23.86-16.62c22.47-12.76,47.17-21.47,72.55-26.18
		c23.34-4.33,51.85-7.79,75.24-2.13c3.47,0.84,7.14,0.75,10.7,1.24c4.34,0.6,8.71,1.13,12.98,2.11c8.04,1.83,16.05,3.83,24.01,5.98
		c8.43,2.28,16.85,4.59,25.16,7.29c17.85,5.79,35.28,12.76,52.69,19.81c16.21,6.57,32.3,13.49,48.86,19.13
		c7.5,2.55,14.81,5.73,22.33,8.23c10.59,3.51,21.2,7.04,31.98,9.83c9.09,2.35,18.44,3.62,27.66,5.45c9.69,1.93,19.8,2.81,29.66,3.36
		c7.37,0.41,14.76,0.43,22.12-0.12c3.73-0.28,7.45-0.69,11.14-1.29c3.55-0.57,7.18-0.46,10.71-1.13c6.51-1.24,12.94-2.92,19.4-4.42
		c11.06-2.56,21.65-6.68,32.09-11.04c8.4-3.51,16.36-8.13,24.49-12.31c10.18-5.23,19.74-11.53,29.03-18.24
		c6.55-4.73,12.8-9.91,19.14-14.93c6.93-5.48,13.29-11.61,19.51-17.91c5.98-6.06,11.75-12.31,17.67-18.42
		C848.17,700.75,848.96,699.16,851.74,700.43"/>
	<path class="st1" d="M155.87,782.53c0,0,0.31-1.41,1.03-3.87c3.59-12.45,17.3-51.92,51.76-73.95
		c41.28-26.39,82.56-36.54,140.09-32.48s114.98,28.42,128.55,33.84c13.57,5.41,119.45,48.05,192.05,43.31s114.55-21.66,174.78-59.55
		c-24.36,32.48-61.58,56.17-78.5,64.97c-16.92,8.8-71.74,34.51-138.73,24.36s-141.3-37.22-158.97-43.99
		c-17.66-6.77-124.59-48.73-198.36-31.13C195.8,721.62,168.73,758.16,155.87,782.53z"/>
	<g>
		<path class="st1" d="M365.04,637.44c-15.8,0-31.6,0-47.38,0c-1.14-6.73,1.43-10.53,7.68-12.14c3.29-0.85,6.62-0.63,9.89-1.08
			c4.41-0.61,8.89-0.5,13.25-1.7c2-0.55,3.22-1.53,4.12-3.22c-0.23-3.38-2.8-4.75-5.23-6.07c-3.92-2.13-7.96-4.04-11.91-6.1
			c-1.76-0.92-3.49-1.9-5.13-3.01c-4.67-3.15-6.38-7.18-5.07-12.67c0.72-3.01,1.89-5.93,3.05-8.82c1.53-3.81,3.02-7.67,4.93-11.3
			c3.15-5.99,7.67-8.13,13.41-7.43c1.76,0.22,3.45,1.04,5.17,1.59c4.53,1.44,9.06,2.88,13.6,4.32c0.15,0.05,0.33,0.01,0.73,0.01
			c1.45-1.85,2.97-3.8,4.79-6.12c-0.81-1.21-1.59-2.64-2.62-3.86c-2.69-3.19-5.76-6.1-8.18-9.48c-1.88-2.63-3.57-5.68-4.28-8.78
			c-0.7-3.08,0.74-6.33,2.92-8.65c4.95-5.27,10.03-10.45,15.36-15.34c4.06-3.72,10.51-3.99,15.38-0.14
			c4.31,3.41,8.56,6.92,12.6,10.64c2.77,2.55,5.67,4.01,9.46,3.26c2.27-3.24,1.16-6.55,0.17-9.83c-1.61-5.34-3.39-10.64-4.89-16.01
			c-1.54-5.52,0.51-10.97,5.65-13.4c6.97-3.3,14.12-6.34,21.43-8.77c4.52-1.51,8.87,0.31,11.74,4.26c1.92,2.65,3.35,5.68,4.95,8.56
			c2,3.61,4,7.23,5.9,10.89c1.05,2.03,2.54,3.43,4.65,4.31c3.09-1.04,3.16-3.83,3.41-6.09c0.61-5.46,0.9-10.96,1.15-16.46
			c0.39-8.85,5.28-13.8,14.06-13.93c5.39-0.08,10.78-0.07,16.17-0.01c9.2,0.1,13.53,5.27,14.34,13.75
			c0.59,6.17,0.8,12.32,1.01,18.49c0.04,1.26,0.65,2.51,1,3.75c1.88,0.53,3.6,1.02,5.62,1.59c1.83-3.24,3.67-6.34,5.35-9.52
			c2.15-4.07,3.99-8.32,6.31-12.29c3.64-6.21,9.41-8.32,16.31-5.86c5.72,2.04,11.4,4.28,16.89,6.86c6.8,3.19,8.96,8.09,7.08,15.45
			c-1.3,5.08-2.96,10.06-4.47,15.09c-0.52,1.73-1.29,3.42-1.53,5.18c-0.21,1.57-0.66,3.41,1.19,4.76c1.51,0.57,2.99,0.47,4.46-0.77
			c3.18-2.67,6.48-5.21,9.7-7.84c2.19-1.79,4.43-3.55,6.48-5.49c2.21-2.08,4.74-2.77,7.72-2.92c4.15-0.21,7.43,1.09,10.28,4.1
			c3.89,4.11,8.01,8.01,11.96,12.06c1.03,1.06,1.98,2.27,2.69,3.56c2.71,4.92,1.83,10.62-2.31,15.42
			c-4.91,5.69-9.86,11.36-14.97,17.24c0.74,1.4,1.48,2.81,2.21,4.19c3.15,0.43,5.85,0.18,8.61-0.8c4.79-1.71,9.61-3.4,14.56-4.52
			c3.2-0.73,6.68-0.85,9.94-0.45c2.65,0.32,4.93,2.32,6.07,4.82c3.13,6.89,6.32,13.77,8.88,20.88c1.87,5.16-0.5,10.77-5.38,13.71
			c-4.79,2.89-9.87,5.31-14.84,7.91c-3.75,1.97-4.98,3.17-6.94,7.04c1.59,2.08,4.22,2.49,6.46,2.9c4.07,0.74,8.27,0.73,12.4,1.14
			c2.8,0.27,5.64,0.46,8.35,1.14c2.98,0.75,5.44,2.51,6.58,5.59c0.72,1.94,1.3,3.93,2.16,6.53c-1.82,0-2.95,0-4.07,0
			c-12.8,0-25.6,0-38.39,0c-1.35,0-2.7-0.1-4.04-0.04c-3.47,0.17-5.66-1.42-6.62-4.71c-0.96-3.3-2.01-6.59-2.73-9.95
			c-3.7-17.11-10.25-33.03-20.48-47.23c-5.57-7.74-12.37-14.43-19.78-20.57c-6.32-5.24-13.12-9.75-20.35-13.31
			c-9.25-4.56-18.91-8.26-29.12-10.56c-8.01-1.81-15.96-2.77-24.13-3.02c-5.96-0.18-11.88,0.24-17.81,0.38
			c-3.74,0.09-7.5,1.09-11.18,1.96c-10.13,2.39-19.85,5.94-28.98,10.97c-8.45,4.66-16.56,9.8-23.45,16.7
			c-6.27,6.29-12.69,12.41-17.69,19.84c-7.22,10.73-13.37,21.96-16.58,34.61c-1.62,6.36-3.39,12.68-4.97,19.05
			C369.1,634.41,366.91,635.68,365.04,637.44z"/>
	</g>
	<g>
		<path class="st2" d="M534.66,597.25l-32.83-37.66l-17.88,22.4c-3.97,5.14-7.93,10.29-11.92,15.42c-2.45,3.14-5.13,6.1-7.38,8.76
			l-20.03-7l-8.9-3.11l-2.39-0.83l1.26,3.11l3.96,3.1l-0.25,26.35l3.14,1.82l32.56,18.94c0.02,0,0.03,0.01,0.05,0.01l0.05-0.01
			l53.31-12.94l1.88-0.46v-33.69l8.83-0.75L534.66,597.25z"/>
	</g>
	<g>
		<path class="st3" d="M530.04,596.8c-1.97,0.22-3.11,0.35-4.75,0.53v34.36l-0.93,0.24l-5.73,1.52l-3.37,0.88l-3.01,0.79l-1.91,0.5
			v-29.45l-17.45,3.4l0.21,29.64l-17.1,4.45V606.5h-6.03l16.59-20.7l0.14-0.18c4.21-5.41,8.33-10.89,12.54-16.29
			c0.8-1.02,1.81-1.87,2.95-3.04c7.17,6.99,13.47,14.51,20.08,21.98C524.78,591.14,527.35,593.99,530.04,596.8z"/>
	</g>
	<g>
		<path class="st3" d="M525.29,603.45v-6.12C525.29,599.39,525.36,601.43,525.29,603.45z"/>
	</g>
	<g>
		<path class="st3" d="M460.52,615.52v12.76c-4.17-0.61-6.69-4.16-10.7-4.51v-12.55C453.95,611.64,457.35,613.28,460.52,615.52z"/>
	</g>
	<g>
		<path class="st1" d="M487.22,557.74l-2.1-0.15l-7.75-0.54h-0.01l-2.11-0.16l-9.42-0.66l-7.41,8.41l-1.37,1.55l-5.74,6.5
			l-1.33,1.52l-6.64,7.53l-1.28,1.46l-7.5,8.5l8.94,3.52l1.7,0.67l7.02,2.76l1.69,0.67l9.9,3.9l9.37-11.83l1.18-1.48l7.66-9.68
			l1.22-1.54l6.11-7.7l1.24-1.57l8.57-10.83L487.22,557.74z M476,558.69l7.79,0.55l-6.57,8.19l-7.54-1.12L476,558.69z
			 M462.63,574.83l5.76-6.95l7.58,1.13l-5.8,7.23L462.63,574.83z M468.93,577.77l-7.09,8.84l-7.39-1.94l6.9-8.32L468.93,577.77z
			 M466.54,558.03l7.33,0.52l-6.19,7.47l-7.24-1.07L466.54,558.03z M459.07,566.5l7.31,1.08l-5.7,6.88l-7.4-1.39L459.07,566.5z
			 M451.93,574.58l7.47,1.4l-6.8,8.2l-7.42-1.95L451.93,574.58z M444.63,593.81l-7.16-2.82l6.43-7.29l7.48,1.97L444.63,593.81z
			 M453.33,597.23l-7-2.75l6.91-8.33l7.41,1.95L453.33,597.23z M463.22,601.13l-8.21-3.23l7.48-9.33l8.83,2.32L463.22,601.13z
			 M472.49,589.41l-8.83-2.31l7.2-8.97l9.21,1.72L472.49,589.41z M481.29,578.32l-9.2-1.72l5.85-7.3l9.39,1.39L481.29,578.32z
			 M488.59,569.11l-9.38-1.39l6.69-8.34l9.84,0.69L488.59,569.11z"/>
	</g>
	<g>
		<polygon class="st3" points="451.39,585.66 444.63,593.81 437.47,590.99 443.91,583.7 		"/>
	</g>
	<g>
		<polygon class="st3" points="460.66,588.1 453.33,597.23 446.33,594.48 453.24,586.15 		"/>
	</g>
	<g>
		<polygon class="st3" points="471.32,590.89 463.22,601.13 455.01,597.9 462.49,588.57 		"/>
	</g>
	<g>
		<polygon class="st3" points="480.07,579.85 472.49,589.41 463.67,587.1 470.87,578.13 		"/>
	</g>
	<g>
		<polygon class="st3" points="459.41,575.99 452.61,584.19 445.19,582.24 451.93,574.58 		"/>
	</g>
	<g>
		<polygon class="st3" points="468.93,577.77 461.84,586.61 454.45,584.67 461.36,576.35 		"/>
	</g>
	<g>
		<polygon class="st3" points="475.97,569 470.16,576.23 462.63,574.83 468.39,567.87 		"/>
	</g>
	<g>
		<polygon class="st3" points="466.38,567.58 460.68,574.46 453.28,573.07 459.07,566.5 		"/>
	</g>
	<g>
		<polygon class="st3" points="473.87,558.55 467.68,566.02 460.44,564.95 466.54,558.03 		"/>
	</g>
	<g>
		<polygon class="st3" points="483.8,559.24 477.22,567.43 469.68,566.31 476,558.69 		"/>
	</g>
	<g>
		<polygon class="st3" points="495.74,560.08 488.59,569.11 479.21,567.73 485.9,559.39 		"/>
	</g>
	<g>
		<polygon class="st3" points="487.34,570.68 481.29,578.32 472.1,576.59 477.95,569.29 		"/>
	</g>
	<g>
		<path class="st4" d="M530.04,596.8c-2.69-2.81-5.27-5.66-7.79-8.53L530.04,596.8z"/>
	</g>
	<path class="st0" d="M779.41,635.95l127.37,24.07l-72.38,11.55h-0.01l-133.52-46.78c-0.03-0.15-0.05-0.3-0.08-0.45
		c-0.07-0.42-0.15-0.85-0.23-1.26c-0.13-0.7-0.26-1.39-0.4-2.1c-0.34-1.81-0.71-3.61-1.11-5.4c-0.37-1.75-0.78-3.49-1.2-5.23
		c-1.54-6.3-3.36-12.5-5.44-18.57c-0.74-2.17-1.52-4.32-2.34-6.46c-2.75-7.26-5.89-14.32-9.39-21.17c-0.65-1.26-1.31-2.53-1.98-3.78
		c-0.44-0.81-0.88-1.63-1.33-2.44c-0.29-0.54-0.59-1.07-0.89-1.6c-0.26-0.46-0.52-0.92-0.78-1.38c-0.05-0.09-0.1-0.17-0.15-0.25
		c-0.42-0.73-0.84-1.45-1.27-2.17c-1.03-1.76-2.1-3.5-3.2-5.22c-0.38-0.61-0.77-1.22-1.16-1.83c-0.45-0.69-0.9-1.39-1.35-2.07
		c-0.72-1.1-1.45-2.2-2.21-3.28c-1.5-2.17-3.03-4.32-4.6-6.43c-0.45-0.6-0.9-1.2-1.35-1.79c-0.37-0.49-0.74-0.98-1.12-1.46
		c-0.54-0.68-1.07-1.36-1.6-2.04c-0.32-0.41-0.65-0.81-0.97-1.21c-0.45-0.55-0.9-1.11-1.35-1.66c-0.18-0.23-0.37-0.45-0.55-0.68
		c-6.13-7.42-12.77-14.44-19.88-20.99c-1.86-1.71-3.75-3.4-5.68-5.06c-8.8-7.55-18.25-14.42-28.29-20.51
		c-2.08-1.26-4.18-2.49-6.31-3.67c-1.62-0.92-3.26-1.8-4.91-2.67c-0.76-0.4-1.53-0.8-2.29-1.19c-0.77-0.4-1.54-0.79-2.32-1.17
		c-0.77-0.39-1.55-0.76-2.33-1.14c-1.05-0.5-2.1-1-3.15-1.48c-2-0.93-4.02-1.83-6.05-2.68c-2.86-1.21-5.75-2.37-8.68-3.46
		c-10.24-3.83-20.85-6.89-31.78-9.12c-2.89-0.59-5.81-1.13-8.75-1.59c-3.87-0.63-7.79-1.15-11.73-1.56c-1.3-0.14-2.6-0.26-3.9-0.38
		c-0.74-0.07-1.5-0.13-2.24-0.18c-2.77-0.23-5.53-0.38-8.29-0.49c-3.39-0.13-6.76-0.19-10.12-0.16
		c-10.94,0.09-21.76,1.02-32.36,2.75c-3.16,0.51-6.3,1.1-9.41,1.75c-0.57,0.12-1.14,0.24-1.71,0.36c-0.18,0.03-0.36,0.08-0.54,0.12
		c-1.39,0.3-2.76,0.62-4.14,0.95c-0.26,0.06-0.51,0.12-0.77,0.18c-0.77,0.19-1.54,0.38-2.3,0.58c-5.37,1.37-10.65,2.94-15.84,4.72
		c-2.76,0.94-5.5,1.93-8.21,2.99c-10.63,4.11-20.84,9.05-30.55,14.74c-2.29,1.33-4.56,2.72-6.8,4.15
		c-4.43,2.81-8.75,5.79-12.94,8.91c-0.6,0.45-1.2,0.9-1.79,1.35c-0.49,0.37-0.98,0.74-1.46,1.12c-1.09,0.85-2.18,1.71-3.26,2.57
		c-0.61,0.49-1.21,0.98-1.81,1.47c-0.05,0.03-0.1,0.07-0.14,0.11c-0.13,0.1-0.26,0.22-0.39,0.32c-0.94,0.77-1.86,1.54-2.78,2.35
		h-0.01c-9.67,8.28-18.63,17.43-26.74,27.38c-0.84,1.02-1.67,2.06-2.49,3.11c-5.54,7.06-10.66,14.5-15.31,22.29
		c-0.13,0.22-0.26,0.44-0.38,0.66c-1.81,3.05-3.54,6.15-5.2,9.3c-0.8,1.52-1.58,3.07-2.36,4.62c-0.39,0.77-0.76,1.55-1.14,2.33
		c-0.5,1.05-1,2.1-1.48,3.15c-0.72,1.57-1.43,3.14-2.11,4.74c-1.94,4.47-3.73,9.02-5.36,13.64c-0.06,0.16-0.11,0.33-0.17,0.49
		c-2.97,8.49-5.42,17.23-7.31,26.16c-0.05,0.22-0.1,0.43-0.14,0.65c-1,4.75-1.83,9.58-2.5,14.45l-114.51,35.31l-84.35-14
		l114.1-20.27l-176.1-55.38l202.32,9.76l-119.1-57.38l123.62,13.49L69.42,430.62l192.19,75.17l-93.16-95.27l114.74,55.52
		L173.06,304.48l155.78,135.53L276.22,323.1l91.29,92.63l-48.67-199.98l100.84,186.69l-3.12-128.05l47.17,113.96l26.35-204.38
		l26.98,209.22l40.18-115.95l5.15,123.12l104.78-183.91l-56.96,202.76l76.63-94.29l-37.92,114.5l166.51-134.88L693.66,472.68
		l117.12-62.17l-81.08,92l199.13-71.57l-186.37,120.5l141.85-29.14L766.13,589.2l216.5-7.56L779.41,635.95z"/>
</g>
</svg>
